<svg width="25" height="25" viewBox="0 0 25 25" fill="none" xmlns="http://www.w3.org/2000/svg">
<g id="account-multiple">
<path id="Vector" d="M16.5 17.5001V19.5001H2.5V17.5001C2.5 17.5001 2.5 13.5001 9.5 13.5001C16.5 13.5001 16.5 17.5001 16.5 17.5001ZM13 8.00005C13 7.30782 12.7947 6.63113 12.4101 6.05556C12.0256 5.47998 11.4789 5.03138 10.8394 4.76647C10.1999 4.50157 9.49612 4.43226 8.81718 4.5673C8.13825 4.70235 7.51461 5.0357 7.02513 5.52518C6.53564 6.01466 6.2023 6.6383 6.06725 7.31724C5.9322 7.99617 6.00152 8.6999 6.26642 9.33944C6.53133 9.97899 6.97993 10.5256 7.5555 10.9102C8.13108 11.2948 8.80777 11.5001 9.5 11.5001C10.4283 11.5001 11.3185 11.1313 11.9749 10.4749C12.6313 9.81855 13 8.92831 13 8.00005ZM16.44 13.5001C17.0547 13.9758 17.5578 14.5805 17.9137 15.2716C18.2696 15.9626 18.4697 16.7233 18.5 17.5001V19.5001H22.5V17.5001C22.5 17.5001 22.5 13.8701 16.44 13.5001ZM15.5 4.50005C14.8117 4.49622 14.1385 4.70201 13.57 5.09005C14.1774 5.93879 14.5041 6.95634 14.5041 8.00005C14.5041 9.04377 14.1774 10.0613 13.57 10.9101C14.1385 11.2981 14.8117 11.5039 15.5 11.5001C16.4283 11.5001 17.3185 11.1313 17.9749 10.4749C18.6313 9.81855 19 8.92831 19 8.00005C19 7.07179 18.6313 6.18156 17.9749 5.52518C17.3185 4.8688 16.4283 4.50005 15.5 4.50005Z" fill="white" fill-opacity="0.5"/>
</g>
</svg>
