<svg width="322" height="102" viewBox="0 0 322 102" fill="none" xmlns="http://www.w3.org/2000/svg">
<path d="M7.89258 5.40625V31H2.63672V5.40625H7.89258ZM33.3021 5.40625V31H28.0287L17.7455 13.8438V31H12.472V5.40625H17.7455L28.0463 22.5801V5.40625H33.3021ZM42.8034 5.40625V31H37.53V5.40625H42.8034ZM52.9987 16.3398V20.4531H41.362V16.3398H52.9987ZM54.2292 5.40625V9.53711H41.362V5.40625H54.2292ZM62.5352 5.40625V31H57.2794V5.40625H62.5352ZM87.9448 5.40625V31H82.6713L72.3881 13.8438V31H67.1147V5.40625H72.3881L82.6889 22.5801V5.40625H87.9448ZM97.7801 5.40625V31H92.5242V5.40625H97.7801ZM113.276 5.40625V31H108.02V5.40625H113.276ZM121.151 5.40625V9.53711H100.268V5.40625H121.151ZM140.97 26.8867V31H127.347V26.8867H140.97ZM129.07 5.40625V31H123.796V5.40625H129.07ZM139.195 15.8301V19.8379H127.347V15.8301H139.195ZM140.953 5.40625V9.53711H127.347V5.40625H140.953ZM17.1211 60.5098H22.377C22.2715 62.2324 21.7969 63.7617 20.9531 65.0977C20.1211 66.4336 18.9551 67.4766 17.4551 68.2266C15.9668 68.9766 14.1738 69.3516 12.0762 69.3516C10.4355 69.3516 8.96484 69.0703 7.66406 68.5078C6.36328 67.9336 5.25 67.1133 4.32422 66.0469C3.41016 64.9805 2.71289 63.6914 2.23242 62.1797C1.75195 60.668 1.51172 58.9746 1.51172 57.0996V55.3242C1.51172 53.4492 1.75781 51.7559 2.25 50.2441C2.75391 48.7207 3.46875 47.4258 4.39453 46.3594C5.33203 45.293 6.45117 44.4727 7.75195 43.8984C9.05273 43.3242 10.5059 43.0371 12.1113 43.0371C14.2441 43.0371 16.043 43.4238 17.5078 44.1973C18.9844 44.9707 20.127 46.0371 20.9355 47.3965C21.7559 48.7559 22.248 50.3027 22.4121 52.0371H17.1387C17.0801 51.0059 16.875 50.1328 16.5234 49.418C16.1719 48.6914 15.6387 48.1465 14.9238 47.7832C14.2207 47.4082 13.2832 47.2207 12.1113 47.2207C11.2324 47.2207 10.4648 47.3848 9.80859 47.7129C9.15234 48.041 8.60156 48.5391 8.15625 49.207C7.71094 49.875 7.37695 50.7188 7.1543 51.7383C6.94336 52.7461 6.83789 53.9297 6.83789 55.2891V57.0996C6.83789 58.4238 6.9375 59.5898 7.13672 60.5977C7.33594 61.5938 7.64062 62.4375 8.05078 63.1289C8.47266 63.8086 9.01172 64.3242 9.66797 64.6758C10.3359 65.0156 11.1387 65.1855 12.0762 65.1855C13.1777 65.1855 14.0859 65.0098 14.8008 64.6582C15.5156 64.3066 16.0605 63.7852 16.4355 63.0938C16.8223 62.4023 17.0508 61.541 17.1211 60.5098ZM97.939 43.4062V69H92.6656L82.3823 51.8438V69H77.1089V43.4062H82.3823L92.6831 60.5801V43.4062H97.939ZM122.997 43.4062V69H117.724L107.44 51.8438V69H102.167V43.4062H107.44L117.741 60.5801V43.4062H122.997ZM144.399 64.8867V69H130.776V64.8867H144.399ZM132.498 43.4062V69H127.225V43.4062H132.498ZM142.623 53.8301V57.8379H130.776V53.8301H142.623ZM144.381 43.4062V47.5371H130.776V43.4062H144.381ZM161.951 60.5098H167.207C167.101 62.2324 166.627 63.7617 165.783 65.0977C164.951 66.4336 163.785 67.4766 162.285 68.2266C160.796 68.9766 159.004 69.3516 156.906 69.3516C155.265 69.3516 153.795 69.0703 152.494 68.5078C151.193 67.9336 150.08 67.1133 149.154 66.0469C148.24 64.9805 147.543 63.6914 147.062 62.1797C146.582 60.668 146.341 58.9746 146.341 57.0996V55.3242C146.341 53.4492 146.587 51.7559 147.08 50.2441C147.584 48.7207 148.298 47.4258 149.224 46.3594C150.162 45.293 151.281 44.4727 152.582 43.8984C153.882 43.3242 155.336 43.0371 156.941 43.0371C159.074 43.0371 160.873 43.4238 162.337 44.1973C163.814 44.9707 164.957 46.0371 165.765 47.3965C166.586 48.7559 167.078 50.3027 167.242 52.0371H161.968C161.91 51.0059 161.705 50.1328 161.353 49.418C161.002 48.6914 160.468 48.1465 159.754 47.7832C159.05 47.4082 158.113 47.2207 156.941 47.2207C156.062 47.2207 155.295 47.3848 154.638 47.7129C153.982 48.041 153.431 48.5391 152.986 49.207C152.541 49.875 152.207 50.7188 151.984 51.7383C151.773 52.7461 151.668 53.9297 151.668 55.2891V57.0996C151.668 58.4238 151.767 59.5898 151.966 60.5977C152.166 61.5938 152.47 62.4375 152.88 63.1289C153.302 63.8086 153.841 64.3242 154.498 64.6758C155.166 65.0156 155.968 65.1855 156.906 65.1855C158.007 65.1855 158.916 65.0098 159.63 64.6582C160.345 64.3066 160.89 63.7852 161.265 63.0938C161.652 62.4023 161.88 61.541 161.951 60.5098ZM181.226 43.4062V69H175.97V43.4062H181.226ZM189.101 43.4062V47.5371H168.218V43.4062H189.101Z" fill="white"/>
<path fill-rule="evenodd" clip-rule="evenodd" d="M50.0211 66.1271C52.0984 63.6612 53.35 60.4768 53.35 57.0002C53.35 53.5235 52.0984 50.3392 50.0211 47.8733C52.6214 44.7864 56.5153 42.8252 60.8673 42.8252C68.6959 42.8252 75.0423 49.1716 75.0423 57.0002C75.0423 64.8288 68.6959 71.1752 60.8673 71.1752C56.5153 71.1752 52.6214 69.214 50.0211 66.1271ZM50.0211 66.1271C47.4209 69.214 43.527 71.1752 39.175 71.1752C31.3464 71.1752 25 64.8288 25 57.0002C25 49.1716 31.3464 42.8252 39.175 42.8252C43.527 42.8252 47.4209 44.7864 50.0211 47.8733C47.9439 50.3392 46.6923 53.5235 46.6923 57.0002C46.6923 60.4768 47.9439 63.6612 50.0211 66.1271Z" fill="white"/>
<path d="M2.198 87.326C2.198 86.934 2.27267 86.6727 2.422 86.542C2.57133 86.402 2.85133 86.332 3.262 86.332H9.828C10.052 86.332 10.2293 86.346 10.36 86.374C10.5 86.402 10.6073 86.4533 10.682 86.528C10.766 86.6027 10.822 86.7053 10.85 86.836C10.878 86.9667 10.892 87.13 10.892 87.326V90.63C10.892 91.022 10.8173 91.288 10.668 91.428C10.5187 91.5587 10.2387 91.624 9.828 91.624H3.262C3.038 91.624 2.856 91.61 2.716 91.582C2.58533 91.554 2.478 91.5027 2.394 91.428C2.31933 91.344 2.268 91.2413 2.24 91.12C2.212 90.9893 2.198 90.826 2.198 90.63V87.326ZM3.5 87.172C3.36933 87.172 3.28067 87.2 3.234 87.256C3.18733 87.3027 3.164 87.396 3.164 87.536V90.42C3.164 90.56 3.18733 90.658 3.234 90.714C3.28067 90.7607 3.36933 90.784 3.5 90.784H9.59C9.72067 90.784 9.80933 90.7607 9.856 90.714C9.90267 90.658 9.926 90.56 9.926 90.42V87.536C9.926 87.396 9.90267 87.3027 9.856 87.256C9.80933 87.2 9.72067 87.172 9.59 87.172H3.5ZM6.244 98.876C6.19733 98.876 6.15533 98.8527 6.118 98.806C6.08067 98.7687 6.062 98.722 6.062 98.666V94.228H0.63C0.574 94.228 0.522667 94.2093 0.476 94.172C0.438667 94.1347 0.42 94.0927 0.42 94.046V93.57C0.42 93.514 0.438667 93.472 0.476 93.444C0.522667 93.4067 0.574 93.388 0.63 93.388H12.53C12.5767 93.388 12.6233 93.4067 12.67 93.444C12.7167 93.472 12.74 93.514 12.74 93.57V94.046C12.74 94.0927 12.7167 94.1347 12.67 94.172C12.6233 94.2093 12.5767 94.228 12.53 94.228H7.028V98.666C7.028 98.722 7.00933 98.7687 6.972 98.806C6.944 98.8527 6.902 98.876 6.846 98.876H6.244ZM20.796 92.254C20.796 92.59 20.7213 92.9073 20.572 93.206C20.4227 93.5047 20.2173 93.766 19.956 93.99C19.704 94.214 19.4007 94.3913 19.046 94.522C18.6913 94.6433 18.3087 94.704 17.898 94.704C17.4873 94.704 17.1047 94.6433 16.75 94.522C16.3953 94.3913 16.0873 94.214 15.826 93.99C15.574 93.766 15.3733 93.5047 15.224 93.206C15.084 92.9073 15.014 92.59 15.014 92.254C15.014 91.918 15.084 91.6053 15.224 91.316C15.3733 91.0173 15.574 90.7607 15.826 90.546C16.0873 90.322 16.3953 90.1493 16.75 90.028C17.1047 89.8973 17.4873 89.832 17.898 89.832C18.3087 89.832 18.6913 89.8973 19.046 90.028C19.4007 90.1493 19.704 90.322 19.956 90.546C20.2173 90.7607 20.4227 91.0173 20.572 91.316C20.7213 91.6053 20.796 91.918 20.796 92.254ZM23.946 95.81C23.946 95.9407 23.8807 96.006 23.75 96.006H23.176C23.0453 96.006 22.98 95.9407 22.98 95.81V86.248C22.98 86.1173 23.0453 86.052 23.176 86.052H23.75C23.8807 86.052 23.946 86.1173 23.946 86.248V90.882H25.878C25.934 90.882 25.9807 90.9007 26.018 90.938C26.0647 90.966 26.088 91.008 26.088 91.064V91.54C26.088 91.5867 26.0647 91.6287 26.018 91.666C25.9807 91.7033 25.934 91.722 25.878 91.722H23.946V95.81ZM19.844 92.254C19.844 92.03 19.7927 91.8247 19.69 91.638C19.5967 91.442 19.4613 91.274 19.284 91.134C19.116 90.994 18.9107 90.8867 18.668 90.812C18.4347 90.728 18.178 90.686 17.898 90.686C17.618 90.686 17.3613 90.728 17.128 90.812C16.8947 90.8867 16.6893 90.994 16.512 91.134C16.3347 91.274 16.1947 91.442 16.092 91.638C15.9987 91.8247 15.952 92.03 15.952 92.254C15.952 92.478 15.9987 92.688 16.092 92.884C16.1947 93.08 16.3347 93.248 16.512 93.388C16.6893 93.528 16.8947 93.64 17.128 93.724C17.3613 93.808 17.618 93.85 17.898 93.85C18.178 93.85 18.4347 93.808 18.668 93.724C18.9107 93.64 19.116 93.528 19.284 93.388C19.4613 93.248 19.5967 93.08 19.69 92.884C19.7927 92.688 19.844 92.478 19.844 92.254ZM24.576 98.582C24.576 98.638 24.5527 98.68 24.506 98.708C24.4593 98.736 24.4127 98.75 24.366 98.75H17.142C16.7033 98.75 16.414 98.666 16.274 98.498C16.1433 98.3393 16.078 98.0687 16.078 97.686V95.754C16.078 95.6233 16.1433 95.558 16.274 95.558H16.848C16.9787 95.558 17.044 95.6233 17.044 95.754V97.63C17.044 97.7607 17.0627 97.84 17.1 97.868C17.1467 97.896 17.2353 97.91 17.366 97.91H24.366C24.4127 97.91 24.4593 97.924 24.506 97.952C24.5527 97.9893 24.576 98.0313 24.576 98.078V98.582ZM21.972 88.978C21.972 89.0993 21.902 89.16 21.762 89.16H14.034C13.9873 89.16 13.9407 89.1413 13.894 89.104C13.8567 89.0667 13.838 89.02 13.838 88.964V88.516C13.838 88.46 13.8567 88.4133 13.894 88.376C13.9407 88.3387 13.9873 88.32 14.034 88.32H21.762C21.902 88.32 21.972 88.3807 21.972 88.502V88.978ZM19.928 87.074C19.928 87.1953 19.858 87.256 19.718 87.256H15.882C15.8353 87.256 15.7887 87.242 15.742 87.214C15.7047 87.186 15.686 87.144 15.686 87.088V86.598C15.686 86.542 15.7047 86.4953 15.742 86.458C15.7793 86.4207 15.8213 86.402 15.868 86.402H19.718C19.858 86.402 19.928 86.4673 19.928 86.598V87.074ZM33.962 92.254C33.962 92.59 33.8874 92.9073 33.738 93.206C33.5887 93.5047 33.3834 93.766 33.122 93.99C32.87 94.214 32.5667 94.3913 32.212 94.522C31.8574 94.6433 31.4747 94.704 31.064 94.704C30.6534 94.704 30.2707 94.6433 29.916 94.522C29.5614 94.3913 29.2534 94.214 28.992 93.99C28.74 93.766 28.5394 93.5047 28.39 93.206C28.25 92.9073 28.18 92.59 28.18 92.254C28.18 91.918 28.25 91.6053 28.39 91.316C28.5394 91.0173 28.74 90.7607 28.992 90.546C29.2534 90.322 29.5614 90.1493 29.916 90.028C30.2707 89.8973 30.6534 89.832 31.064 89.832C31.4747 89.832 31.8574 89.8973 32.212 90.028C32.5667 90.1493 32.87 90.322 33.122 90.546C33.3834 90.7607 33.5887 91.0173 33.738 91.316C33.8874 91.6053 33.962 91.918 33.962 92.254ZM37.112 95.81C37.112 95.9407 37.0467 96.006 36.916 96.006H36.342C36.2114 96.006 36.146 95.9407 36.146 95.81V86.248C36.146 86.1173 36.2114 86.052 36.342 86.052H36.916C37.0467 86.052 37.112 86.1173 37.112 86.248V90.882H39.044C39.1 90.882 39.1467 90.9007 39.184 90.938C39.2307 90.966 39.254 91.008 39.254 91.064V91.54C39.254 91.5867 39.2307 91.6287 39.184 91.666C39.1467 91.7033 39.1 91.722 39.044 91.722H37.112V95.81ZM33.01 92.254C33.01 92.03 32.9587 91.8247 32.856 91.638C32.7627 91.442 32.6274 91.274 32.45 91.134C32.282 90.994 32.0767 90.8867 31.834 90.812C31.6007 90.728 31.344 90.686 31.064 90.686C30.784 90.686 30.5274 90.728 30.294 90.812C30.0607 90.8867 29.8554 90.994 29.678 91.134C29.5007 91.274 29.3607 91.442 29.258 91.638C29.1647 91.8247 29.118 92.03 29.118 92.254C29.118 92.478 29.1647 92.688 29.258 92.884C29.3607 93.08 29.5007 93.248 29.678 93.388C29.8554 93.528 30.0607 93.64 30.294 93.724C30.5274 93.808 30.784 93.85 31.064 93.85C31.344 93.85 31.6007 93.808 31.834 93.724C32.0767 93.64 32.282 93.528 32.45 93.388C32.6274 93.248 32.7627 93.08 32.856 92.884C32.9587 92.688 33.01 92.478 33.01 92.254ZM37.742 98.582C37.742 98.638 37.7187 98.68 37.672 98.708C37.6254 98.736 37.5787 98.75 37.532 98.75H30.308C29.8694 98.75 29.58 98.666 29.44 98.498C29.3094 98.3393 29.244 98.0687 29.244 97.686V95.754C29.244 95.6233 29.3094 95.558 29.44 95.558H30.014C30.1447 95.558 30.21 95.6233 30.21 95.754V97.63C30.21 97.7607 30.2287 97.84 30.266 97.868C30.3127 97.896 30.4014 97.91 30.532 97.91H37.532C37.5787 97.91 37.6254 97.924 37.672 97.952C37.7187 97.9893 37.742 98.0313 37.742 98.078V98.582ZM35.138 88.978C35.138 89.0993 35.068 89.16 34.928 89.16H27.2C27.1534 89.16 27.1067 89.1413 27.06 89.104C27.0227 89.0667 27.004 89.02 27.004 88.964V88.516C27.004 88.46 27.0227 88.4133 27.06 88.376C27.1067 88.3387 27.1534 88.32 27.2 88.32H34.928C35.068 88.32 35.138 88.3807 35.138 88.502V88.978ZM33.094 87.074C33.094 87.1953 33.024 87.256 32.884 87.256H29.048C29.0014 87.256 28.9547 87.242 28.908 87.214C28.8707 87.186 28.852 87.144 28.852 87.088V86.598C28.852 86.542 28.8707 86.4953 28.908 86.458C28.9454 86.4207 28.9874 86.402 29.034 86.402H32.884C33.024 86.402 33.094 86.4673 33.094 86.598V87.074ZM54.6919 98.764C54.6919 98.8947 54.6265 98.96 54.4959 98.96H53.9219C53.7912 98.96 53.7259 98.8947 53.7259 98.764V86.248C53.7259 86.1173 53.7912 86.052 53.9219 86.052H54.4959C54.6265 86.052 54.6919 86.1173 54.6919 86.248V98.764ZM50.9399 88.11C50.8932 88.9127 50.7345 89.7013 50.4639 90.476C50.1932 91.2507 49.8152 91.9927 49.3299 92.702C48.8539 93.402 48.2752 94.0553 47.5939 94.662C46.9219 95.2593 46.1565 95.7867 45.2979 96.244C45.1765 96.3093 45.0879 96.2953 45.0319 96.202L44.7239 95.712C44.6585 95.6 44.6772 95.5207 44.7799 95.474C45.5732 95.0633 46.2732 94.5967 46.8799 94.074C47.4959 93.542 48.0185 92.968 48.4479 92.352C48.8865 91.736 49.2319 91.0873 49.4839 90.406C49.7359 89.7247 49.8945 89.0247 49.9599 88.306C49.9785 88.166 49.9599 88.0727 49.9039 88.026C49.8479 87.97 49.7545 87.942 49.6239 87.942H45.1719C45.0599 87.942 45.0039 87.8813 45.0039 87.76V87.27C45.0039 87.158 45.0599 87.102 45.1719 87.102H49.8899C50.3285 87.102 50.6179 87.186 50.7579 87.354C50.8979 87.5127 50.9585 87.7647 50.9399 88.11ZM65.9539 95.194C66.1032 95.166 66.1826 95.1987 66.1919 95.292L66.2759 95.824C66.2946 95.9267 66.2339 95.992 66.0939 96.02C65.7579 96.076 65.4032 96.132 65.0299 96.188C64.6566 96.244 64.2786 96.2953 63.8959 96.342C63.5132 96.3887 63.1259 96.4307 62.7339 96.468C62.3512 96.496 61.9872 96.5147 61.6419 96.524C61.3712 96.5333 61.0446 96.5427 60.6619 96.552C60.2886 96.5613 59.9012 96.5707 59.4999 96.58C59.1079 96.58 58.7252 96.5847 58.3519 96.594C57.9786 96.594 57.6612 96.5893 57.3999 96.58C57.3439 96.58 57.2926 96.5613 57.2459 96.524C57.2086 96.4867 57.1899 96.4447 57.1899 96.398V95.922C57.1899 95.866 57.2086 95.824 57.2459 95.796C57.2926 95.7587 57.3439 95.74 57.3999 95.74C57.6052 95.7493 57.8572 95.7587 58.1559 95.768C58.4639 95.768 58.7859 95.768 59.1219 95.768C59.4579 95.7587 59.7986 95.754 60.1439 95.754C60.4892 95.7447 60.8112 95.7353 61.1099 95.726V94.242C60.7272 94.2047 60.3772 94.1253 60.0599 94.004C59.7519 93.8733 59.4859 93.71 59.2619 93.514C59.0379 93.3087 58.8606 93.0753 58.7299 92.814C58.6086 92.5433 58.5479 92.254 58.5479 91.946C58.5479 91.6007 58.6226 91.288 58.7719 91.008C58.9306 90.7187 59.1452 90.476 59.4159 90.28C59.6866 90.0747 60.0039 89.9207 60.3679 89.818C60.7412 89.706 61.1472 89.65 61.5859 89.65C62.0152 89.65 62.4166 89.706 62.7899 89.818C63.1632 89.93 63.4852 90.0887 63.7559 90.294C64.0266 90.49 64.2366 90.728 64.3859 91.008C64.5446 91.288 64.6239 91.6007 64.6239 91.946C64.6239 92.2633 64.5586 92.5527 64.4279 92.814C64.3066 93.0753 64.1339 93.304 63.9099 93.5C63.6859 93.696 63.4152 93.8593 63.0979 93.99C62.7899 94.1113 62.4492 94.1907 62.0759 94.228V95.684C62.3652 95.6653 62.6826 95.6373 63.0279 95.6C63.3732 95.5627 63.7186 95.5253 64.0639 95.488C64.4092 95.4413 64.7452 95.3947 65.0719 95.348C65.3986 95.292 65.6926 95.2407 65.9539 95.194ZM67.8579 98.764C67.8579 98.8947 67.7926 98.96 67.6619 98.96H67.0879C66.9572 98.96 66.8919 98.8947 66.8919 98.764V86.248C66.8919 86.1173 66.9572 86.052 67.0879 86.052H67.6619C67.7926 86.052 67.8579 86.1173 67.8579 86.248V98.764ZM63.6719 91.946C63.6719 91.47 63.4759 91.106 63.0839 90.854C62.6919 90.602 62.1926 90.476 61.5859 90.476C61.2872 90.476 61.0072 90.5087 60.7459 90.574C60.4939 90.6393 60.2746 90.7327 60.0879 90.854C59.9012 90.9753 59.7519 91.1293 59.6399 91.316C59.5372 91.5027 59.4859 91.7127 59.4859 91.946C59.4859 92.1793 59.5372 92.3893 59.6399 92.576C59.7519 92.7533 59.9012 92.9073 60.0879 93.038C60.2746 93.1593 60.4939 93.2573 60.7459 93.332C61.0072 93.3973 61.2872 93.43 61.5859 93.43C62.1926 93.43 62.6919 93.2993 63.0839 93.038C63.4759 92.7767 63.6719 92.4127 63.6719 91.946ZM65.5199 88.74C65.5199 88.8613 65.4499 88.922 65.3099 88.922H57.8619C57.8152 88.922 57.7686 88.9033 57.7219 88.866C57.6846 88.8287 57.6659 88.782 57.6659 88.726V88.264C57.6659 88.208 57.6846 88.1613 57.7219 88.124C57.7686 88.0867 57.8152 88.068 57.8619 88.068H65.3099C65.4499 88.068 65.5199 88.1287 65.5199 88.25V88.74ZM63.5459 86.976C63.5459 87.1067 63.4759 87.172 63.3359 87.172H59.6399C59.5932 87.172 59.5466 87.158 59.4999 87.13C59.4626 87.0927 59.4439 87.046 59.4439 86.99V86.514C59.4439 86.458 59.4626 86.4113 59.4999 86.374C59.5372 86.3367 59.5792 86.318 59.6259 86.318H63.3359C63.4759 86.318 63.5459 86.3833 63.5459 86.514V86.976ZM72.5959 96.748C72.7172 96.748 72.7779 96.7713 72.7779 96.818C72.7779 96.8553 72.7686 96.902 72.7499 96.958L71.8259 99.464C71.7886 99.5387 71.7512 99.5853 71.7139 99.604C71.6859 99.632 71.6392 99.646 71.5739 99.646H70.9859C70.8646 99.646 70.8179 99.5807 70.8459 99.45L71.5039 96.986C71.5226 96.93 71.5506 96.8787 71.5879 96.832C71.6252 96.776 71.6952 96.748 71.7979 96.748H72.5959ZM85.014 88.11C84.9673 88.9127 84.8087 89.7013 84.538 90.476C84.2673 91.2507 83.8893 91.9927 83.404 92.702C82.928 93.402 82.3493 94.0553 81.668 94.662C80.996 95.2593 80.2307 95.7867 79.372 96.244C79.2507 96.3093 79.162 96.2953 79.106 96.202L78.798 95.712C78.7327 95.6 78.7513 95.5207 78.854 95.474C79.6473 95.0633 80.3473 94.5967 80.954 94.074C81.57 93.542 82.0927 92.968 82.522 92.352C82.9607 91.736 83.306 91.0873 83.558 90.406C83.81 89.7247 83.9687 89.0247 84.034 88.306C84.0527 88.166 84.034 88.0727 83.978 88.026C83.922 87.97 83.8287 87.942 83.698 87.942H79.358C79.246 87.942 79.19 87.8813 79.19 87.76V87.27C79.19 87.158 79.246 87.102 79.358 87.102H83.964C84.4027 87.102 84.692 87.186 84.832 87.354C84.972 87.5127 85.0327 87.7647 85.014 88.11ZM88.696 98.764C88.696 98.8947 88.6307 98.96 88.5 98.96H87.926C87.7953 98.96 87.73 98.8947 87.73 98.764V86.248C87.73 86.1173 87.7953 86.052 87.926 86.052H88.5C88.6307 86.052 88.696 86.1173 88.696 86.248V91.204H90.628C90.684 91.204 90.7307 91.2227 90.768 91.26C90.8147 91.288 90.838 91.33 90.838 91.386V91.862C90.838 91.9087 90.8147 91.9507 90.768 91.988C90.7307 92.0253 90.684 92.044 90.628 92.044H88.696V98.764ZM93.546 95.292C93.322 95.292 93.14 95.278 93 95.25C92.8694 95.222 92.7667 95.1707 92.692 95.096C92.6174 95.012 92.566 94.9093 92.538 94.788C92.51 94.6573 92.496 94.494 92.496 94.298V86.934C92.496 86.8873 92.5147 86.85 92.552 86.822C92.5894 86.7847 92.6314 86.766 92.678 86.766H93.28C93.3267 86.766 93.364 86.7847 93.392 86.822C93.4294 86.8593 93.448 86.8967 93.448 86.934V90.182H97.648V86.948C97.648 86.9013 97.662 86.8593 97.69 86.822C97.7274 86.7847 97.7694 86.766 97.816 86.766H98.418C98.4647 86.766 98.5067 86.7847 98.544 86.822C98.5814 86.85 98.6 86.8873 98.6 86.934V89.16H101.386V86.248C101.386 86.1173 101.451 86.052 101.582 86.052H102.156C102.287 86.052 102.352 86.1173 102.352 86.248V98.764C102.352 98.8947 102.287 98.96 102.156 98.96H101.582C101.451 98.96 101.386 98.8947 101.386 98.764V93.402H98.6V94.396C98.6 94.7507 98.5254 94.9887 98.376 95.11C98.2267 95.2313 97.9467 95.292 97.536 95.292H93.546ZM93.448 91.008V94.13C93.448 94.27 93.4714 94.3633 93.518 94.41C93.5647 94.4473 93.6534 94.466 93.784 94.466H97.312C97.4427 94.466 97.5314 94.4473 97.578 94.41C97.6247 94.3633 97.648 94.27 97.648 94.13V91.008H93.448ZM98.6 92.576H101.386V89.986H98.6V92.576ZM110.828 91.246C110.38 91.246 109.899 91.2133 109.386 91.148C108.882 91.0733 108.411 90.9427 107.972 90.756C107.543 90.5693 107.183 90.3127 106.894 89.986C106.614 89.6593 106.474 89.244 106.474 88.74C106.474 88.236 106.614 87.8253 106.894 87.508C107.183 87.1813 107.543 86.9247 107.972 86.738C108.411 86.5513 108.882 86.4253 109.386 86.36C109.899 86.2853 110.38 86.248 110.828 86.248C111.285 86.248 111.771 86.29 112.284 86.374C112.797 86.458 113.269 86.598 113.698 86.794C114.127 86.99 114.482 87.2467 114.762 87.564C115.042 87.8813 115.182 88.2733 115.182 88.74C115.182 89.216 115.037 89.6127 114.748 89.93C114.468 90.2473 114.113 90.504 113.684 90.7C113.255 90.896 112.783 91.036 112.27 91.12C111.766 91.204 111.285 91.246 110.828 91.246ZM110.828 87.116C110.52 87.116 110.17 87.1393 109.778 87.186C109.395 87.2233 109.036 87.3027 108.7 87.424C108.364 87.5453 108.079 87.7133 107.846 87.928C107.613 88.1333 107.496 88.4087 107.496 88.754C107.496 89.0993 107.613 89.3793 107.846 89.594C108.079 89.8087 108.364 89.9767 108.7 90.098C109.036 90.21 109.395 90.2893 109.778 90.336C110.17 90.3733 110.52 90.392 110.828 90.392C111.136 90.392 111.481 90.3733 111.864 90.336C112.247 90.2893 112.606 90.21 112.942 90.098C113.287 89.9767 113.577 89.8087 113.81 89.594C114.043 89.3793 114.16 89.0993 114.16 88.754C114.16 88.4087 114.043 88.1333 113.81 87.928C113.577 87.7133 113.287 87.5453 112.942 87.424C112.606 87.3027 112.242 87.2233 111.85 87.186C111.467 87.1393 111.127 87.116 110.828 87.116ZM110.618 96.314C110.571 96.314 110.529 96.2953 110.492 96.258C110.455 96.2113 110.436 96.16 110.436 96.104V93.248H104.878C104.822 93.248 104.771 93.2293 104.724 93.192C104.687 93.1547 104.668 93.1127 104.668 93.066V92.59C104.668 92.534 104.687 92.492 104.724 92.464C104.771 92.4267 104.822 92.408 104.878 92.408H116.778C116.825 92.408 116.871 92.4267 116.918 92.464C116.965 92.492 116.988 92.534 116.988 92.59V93.066C116.988 93.1127 116.965 93.1547 116.918 93.192C116.871 93.2293 116.825 93.248 116.778 93.248H111.402V96.104C111.402 96.16 111.383 96.2113 111.346 96.258C111.318 96.2953 111.276 96.314 111.22 96.314H110.618ZM115.476 98.54C115.476 98.596 115.453 98.638 115.406 98.666C115.359 98.694 115.313 98.708 115.266 98.708H107.552C107.113 98.708 106.824 98.6147 106.684 98.428C106.553 98.2507 106.488 97.9707 106.488 97.588V94.802C106.488 94.6713 106.553 94.606 106.684 94.606H107.258C107.389 94.606 107.454 94.6713 107.454 94.802V97.574C107.454 97.7047 107.473 97.784 107.51 97.812C107.557 97.8493 107.645 97.868 107.776 97.868H115.266C115.313 97.868 115.359 97.882 115.406 97.91C115.453 97.9473 115.476 97.9893 115.476 98.036V98.54ZM126.602 86.962C126.602 87.578 126.574 88.1707 126.518 88.74C126.471 89.3 126.392 89.8413 126.28 90.364C126.373 90.7373 126.518 91.134 126.714 91.554C126.91 91.9647 127.139 92.3753 127.4 92.786C127.671 93.1967 127.969 93.598 128.296 93.99C128.632 94.3727 128.987 94.718 129.36 95.026C129.407 95.0633 129.43 95.11 129.43 95.166C129.439 95.222 129.43 95.2687 129.402 95.306L129.052 95.74C128.968 95.8427 128.87 95.8427 128.758 95.74C128.497 95.516 128.226 95.25 127.946 94.942C127.675 94.6247 127.409 94.2933 127.148 93.948C126.896 93.6027 126.658 93.248 126.434 92.884C126.21 92.52 126.019 92.17 125.86 91.834C125.561 92.6833 125.169 93.4673 124.684 94.186C124.199 94.8953 123.62 95.558 122.948 96.174C122.855 96.2487 122.775 96.2533 122.71 96.188L122.29 95.754C122.262 95.726 122.248 95.6887 122.248 95.642C122.257 95.5953 122.285 95.5487 122.332 95.502C122.901 94.9607 123.396 94.3913 123.816 93.794C124.236 93.1967 124.577 92.5527 124.838 91.862C125.109 91.1713 125.305 90.42 125.426 89.608C125.557 88.796 125.622 87.9047 125.622 86.934C125.622 86.8687 125.636 86.822 125.664 86.794C125.701 86.7567 125.743 86.738 125.79 86.738L126.448 86.766C126.551 86.766 126.602 86.8313 126.602 86.962ZM132.608 98.764C132.608 98.8947 132.543 98.96 132.412 98.96H131.838C131.707 98.96 131.642 98.8947 131.642 98.764V86.248C131.642 86.1173 131.707 86.052 131.838 86.052H132.412C132.543 86.052 132.608 86.1173 132.608 86.248V98.764ZM141.644 87.886C141.513 88.25 141.336 88.614 141.112 88.978C140.888 89.342 140.622 89.7013 140.314 90.056C140.641 90.392 141.042 90.714 141.518 91.022C142.003 91.33 142.521 91.6053 143.072 91.848C143.128 91.876 143.151 91.9133 143.142 91.96C143.142 92.0067 143.133 92.0533 143.114 92.1L142.834 92.59C142.806 92.6367 142.773 92.6693 142.736 92.688C142.699 92.7067 142.638 92.6927 142.554 92.646C142.349 92.5527 142.125 92.4407 141.882 92.31C141.649 92.1793 141.406 92.03 141.154 91.862C140.902 91.694 140.65 91.512 140.398 91.316C140.155 91.12 139.927 90.9147 139.712 90.7C139.171 91.232 138.573 91.722 137.92 92.17C137.276 92.6087 136.618 92.9773 135.946 93.276C135.899 93.2947 135.853 93.3087 135.806 93.318C135.759 93.3273 135.722 93.3087 135.694 93.262L135.414 92.772C135.386 92.7253 135.381 92.6787 135.4 92.632C135.428 92.576 135.465 92.5387 135.512 92.52C136.716 91.9413 137.743 91.2787 138.592 90.532C139.441 89.7853 140.104 88.922 140.58 87.942C140.645 87.8113 140.655 87.718 140.608 87.662C140.561 87.606 140.473 87.578 140.342 87.578H136.24C136.128 87.578 136.072 87.5173 136.072 87.396V86.906C136.072 86.794 136.137 86.738 136.268 86.738H140.72C141.205 86.738 141.518 86.8267 141.658 87.004C141.798 87.172 141.793 87.466 141.644 87.886ZM137.122 94.508C137.122 94.452 137.145 94.41 137.192 94.382C137.239 94.354 137.285 94.34 137.332 94.34H144.22C144.444 94.34 144.626 94.354 144.766 94.382C144.906 94.41 145.013 94.466 145.088 94.55C145.163 94.6247 145.214 94.732 145.242 94.872C145.27 95.0027 145.284 95.18 145.284 95.404V98.82C145.284 98.9507 145.219 99.016 145.088 99.016H144.514C144.383 99.016 144.318 98.9507 144.318 98.82V95.474C144.318 95.3433 144.295 95.264 144.248 95.236C144.211 95.1987 144.127 95.18 143.996 95.18H137.332C137.285 95.18 137.239 95.166 137.192 95.138C137.145 95.1007 137.122 95.0587 137.122 95.012V94.508ZM145.284 93.346C145.284 93.4767 145.219 93.542 145.088 93.542H144.514C144.383 93.542 144.318 93.4767 144.318 93.346V86.248C144.318 86.1173 144.383 86.052 144.514 86.052H145.088C145.219 86.052 145.284 86.1173 145.284 86.248V89.58H147.216C147.272 89.58 147.319 89.5987 147.356 89.636C147.403 89.664 147.426 89.706 147.426 89.762V90.238C147.426 90.2847 147.403 90.3267 147.356 90.364C147.319 90.4013 147.272 90.42 147.216 90.42H145.284V93.346Z" fill="white"/>
</svg>
