<svg width="38" height="22" viewBox="0 0 38 22" fill="none" xmlns="http://www.w3.org/2000/svg">
<path fill-rule="evenodd" clip-rule="evenodd" d="M19.0001 17.6946C20.5775 15.822 21.5279 13.404 21.5279 10.764C21.5279 8.12392 20.5775 5.70588 19.0001 3.83331C20.9746 1.48928 23.9315 0 27.2362 0C33.181 0 38.0002 4.81919 38.0002 10.764C38.0002 16.7087 33.181 21.5279 27.2362 21.5279C23.9315 21.5279 20.9746 20.0386 19.0001 17.6946ZM19.0001 17.6946C17.0256 20.0386 14.0687 21.5279 10.764 21.5279C4.81919 21.5279 0 16.7087 0 10.764C0 4.81919 4.81919 0 10.764 0C14.0687 0 17.0256 1.48928 19.0001 3.83331C17.4227 5.70588 16.4723 8.12392 16.4723 10.764C16.4723 13.404 17.4227 15.822 19.0001 17.6946Z" fill="black"/>
</svg>
